# xmcd
#
# Track frame offsets:
#	150
#	3835
#	4855
#	8082
#	9102
#	13352
#	18412
#	22325
#	30182
#	33005
#	39267
#	51487
#	58155
#	74117
#	80620
#	100910
#	121580
#	134727
#	149555
#	165075
#	174517
#	196527
#	226310
#	236797
#	256875
#	266572
#
# Disc length: 3800 seconds
#
# Revision: 1
# Processed by: cddbd v1.5.1PL0 Copyright (c) Steve Scherf et al.
# Submitted via: CDex 1.50Beta5
#
DISCID=4b0ed61a
DTITLE=Various Artist - アイドル防衛隊ハミングバード外伝 ザッツ・ミュージカル『卯月の反乱〜こんな日が来るなんて』
DYEAR=1994
DGENRE=Anime
TTITLE0=開演間近
TTITLE1=劇場CM? 「焼肉 ゆげや」
TTITLE2=劇場CM? 「ゴキブリホイ」 〜『ゴキブリホイ(ビューティ・Ver.)』
TTITLE3=劇場CM? 「パチンコ 服部会館」
TTITLE4=劇場CM? 「ゴキブリホイ」 〜『ゴキブリホイ(ダーティ・Ver.)』
TTITLE5=劇場CM? 「ゴジラVSハミングバード」 〜『富士火山のゴジラ』(「ゴジラVSモスラ」より)
TTITLE6=開演 〜『ロマンスに秒読み』
TTITLE7=悪の予兆 〜『フィーバーガールズのテーマ(歌:入り)』
TTITLE8=陽気な卯月 〜『油虫ダンス=x
TTITLE9=陽気な水無 〜『TOTOBENKI』
TTITLE10=フィーバーガールズの作戦
TTITLE11=ハミングバードの作戦
TTITLE12=落ち込む卯月 〜『葛藤のバラード』
TTITLE13=魔法のジュース
TTITLE14=悪の道へと… 〜『誘惑』
TTITLE15=変わり果てた卯月
TTITLE16=バッド・フィーバーガールズ!? 〜『どうしたの?』
TTITLE17=一体、何が起こったんだ? 〜『助けたい!』
TTITLE18=複雑な戦闘
TTITLE19=薬の虜
TTITLE20=卯月を助けて! 〜『まりもの精の歌:』
TTITLE21=クライマックス 〜『Which?』
TTITLE22=ハミングバードの作戦とは?
TTITLE23=終演 〜『Love Wing (5人バージョン)』
TTITLE24=次は誰なのか?
TTITLE25=ロマンスに秒読み
EXTD=
EXTT0=
EXTT1=
EXTT2=
EXTT3=
EXTT4=
EXTT5=
EXTT6=
EXTT7=
EXTT8=
EXTT9=
EXTT10=
EXTT11=
EXTT12=
EXTT13=
EXTT14=
EXTT15=
EXTT16=
EXTT17=
EXTT18=
EXTT19=
EXTT20=
EXTT21=
EXTT22=
EXTT23=
EXTT24=
EXTT25=
PLAYORDER=
